#!OML:ASF F:\VICON\USERDATA\INSTALL\rory3\rory3.ASF
:FULLY-SPECIFIED
:DEGREES
1780
root 0.0191864 14.9547 -0.987386 -7.68807 3.33679 -0.743875
lowerback 15.6443 0.347351 -2.84809
upperback 10.6746 0.151327 -2.44698
thorax 2.58378 0.0208537 -0.986834
lowerneck 10.4144 -13.4918 -23.8114
upperneck -13.3052 -20.5612 9.58066
head -2.35754 -9.70395 6.92709
rclavicle 4.37326e-015 7.15625e-015
rhumerus 24.1972 7.90085 -72.7637
rradius 122.67
rwrist -58.6831
rhand -10.0927 8.29301
rfingers 7.12502
rthumb 15.8944 -21.0747
lclavicle 4.37326e-015 7.15625e-015
lhumerus -16.0001 1.08172 80.9513
lradius 24.2151
lwrist 18.0564
lhand -18.8262 10.6546
lfingers 7.12502
lthumb 7.47294 40.5026
rfemur -13.9937 -0.353608 17.2679
rtibia 50.4272
rfoot -23.1805 -6.0835
rtoes -17.5229
lfemur -14.4065 0.757306 -13.7046
ltibia 47.5417
lfoot -17.7986 -10.3219
ltoes -6.65311
1781
root 0.0172766 14.9562 -0.985954 -7.64046 3.33035 -0.74884
lowerback 15.6204 0.260667 -2.93974
upperback 10.7108 0.0284156 -2.39813
thorax 2.63623 -0.0483919 -0.868283
lowerneck 10.0644 -13.5406 -24.1549
upperneck -13.3463 -20.559 9.83422
head -2.25465 -9.70224 7.00706
rclavicle -2.06736e-014 -1.98785e-014
rhumerus 24.5252 8.55407 -72.632
rradius 122.956
rwrist -58.7573
rhand -9.48739 8.52347
rfingers 7.12502
rthumb 16.4772 -20.7968
lclavicle -2.06736e-014 -1.98785e-014
lhumerus -15.9266 1.71259 80.9796
lradius 24.099
lwrist 17.9804
lhand -19.0905 10.521
lfingers 7.12502
lthumb 7.21776 40.3779
rfemur -14.0474 -0.340247 17.2824
rtibia 50.4402
rfoot -23.2264 -6.00269
rtoes -17.1628
lfemur -14.4474 0.772256 -13.6834
ltibia 47.5286
lfoot -17.7509 -10.3691
ltoes -6.46435
1782
root 0.0147245 14.9561 -0.985496 -7.59955 3.34357 -0.679586
lowerback 15.6207 0.286177 -3.00434
upperback 10.7443 0.0560888 -2.44797
thorax 2.67316 -0.0363953 -0.888289
lowerneck 9.85866 -13.6774 -24.1072
upperneck -13.4152 -20.6698 9.9879
head -2.21046 -9.76562 7.02193
rclavicle 1.47101e-014 6.36111e-015
rhumerus 24.6666 8.85968 -72.5468
rradius 123.255
rwrist -58.6901
rhand -9.0198 8.75383
rfingers 7.12502
rthumb 16.9274 -20.5285
lclavicle 1.47101e-014 6.36111e-015
lhumerus -15.8365 1.73701 80.9661
lradius 24.0714
lwrist 18.0583
lhand -19.2128 10.3389
lfingers 7.12502
lthumb 7.0997 40.1998
rfemur -14.1048 -0.328153 17.2206
rtibia 50.466
rfoot -23.2047 -6.00273
rtoes -17.0382
lfemur -14.4833 0.809516 -13.7481
ltibia 47.5093
lfoot -17.7872 -10.3106
ltoes -6.94011
1783
root 0.0131351 14.9573 -0.984413 -7.57869 3.35199 -0.605495
lowerback 15.6514 0.33649 -3.0136
upperback 10.724 0.119529 -2.53892
thorax 2.63542 -0.00110307 -0.986915
lowerneck 9.92903 -13.7669 -23.9329
upperneck -13.5834 -20.7788 10.1004
head -2.25556 -9.82643 7.04383
rclavicle 3.97569e-015 2.06736e-014
rhumerus 24.5981 9.10399 -72.4911
rradius 123.596
rwrist -58.5777
rhand -8.52418 9.04288
rfingers 7.12502
rthumb 17.4044 -20.1979
lclavicle 3.97569e-015 2.06736e-014
lhumerus -15.8115 1.62219 80.8977
lradius 24.0093
lwrist 18.1058
lhand -19.1725 10.1711
lfingers 7.12502
lthumb 7.13868 40.0307
rfemur -14.1169 -0.305845 17.15
rtibia 50.47
rfoot -23.2474 -6.02028
rtoes -16.9551
lfemur -14.4984 0.82994 -13.8217
ltibia 47.4941
lfoot -17.7841 -10.3182
ltoes -6.85841
1784
root 0.0126312 14.9572 -0.982759 -7.57685 3.36713 -0.567842
lowerback 15.6781 0.339073 -3.05083
upperback 10.6979 0.116282 -2.56186
thorax 2.59355 -0.00338491 -0.989651
lowerneck 9.99376 -13.7992 -23.8909
upperneck -13.7359 -20.8309 10.1688
head -2.29867 -9.85043 7.07111
rclavicle -5.56597e-015 -2.06736e-014
rhumerus 24.5717 9.49077 -72.3834
rradius 123.914
rwrist -58.4844
rhand -8.00349 9.43584
rfingers 7.12502
rthumb 17.9055 -19.7599
lclavicle -5.56597e-015 -2.06736e-014
lhumerus -15.8749 1.65522 80.9006
lradius 23.9322
lwrist 18.2302
lhand -19.2363 9.94105
lfingers 7.12502
lthumb 7.0771 39.8027
rfemur -14.0952 -0.325252 17.1121
rtibia 50.4716
rfoot -23.2499 -6.08521
rtoes -17.3349
lfemur -14.4844 0.812117 -13.8593
ltibia 47.4883
lfoot -17.7511 -10.3901
ltoes -6.44789
1785
root 0.0113887 14.9582 -0.980005 -7.58486 3.37584 -0.647339
lowerback 15.6895 0.337398 -2.98973
upperback 10.6799 0.12004 -2.53806
thorax 2.56751 0.00114626 -0.999291
lowerneck 10.0968 -13.8307 -23.9061
upperneck -13.9287 -20.8932 10.3016
head -2.34493 -9.87989 7.12838
rclavicle -7.95139e-016 3.18055e-015
rhumerus 24.5433 9.83069 -72.3164
rradius 124.237
rwrist -58.3277
rhand -7.55703 9.63598
rfingers 7.12502
rthumb 18.335 -19.5199
lclavicle -7.95139e-016 3.18055e-015
lhumerus -16.101 1.55263 80.9467
lradius 23.9856
lwrist 18.5557
lhand -19.4219 9.56831
lfingers 7.12502
lthumb 6.89793 39.4359
rfemur -14.0682 -0.337571 17.2067
rtibia 50.4508
rfoot -23.2511 -6.10024
rtoes -17.4008
lfemur -14.4718 0.813598 -13.7612
ltibia 47.4939
lfoot -17.7324 -10.4677
ltoes -6.28878
1786
root 0.0102778 14.9583 -0.978011 -7.55852 3.37791 -0.722256
lowerback 15.6612 0.339871 -2.90929
upperback 10.6672 0.133767 -2.53165
thorax 2.56786 0.012067 -1.03928
lowerneck 10.1564 -13.862 -23.9667
upperneck -14.0663 -20.9399 10.5145
head -2.35503 -9.90938 7.20607
rclavicle 6.75868e-015 -4.77083e-015
rhumerus 24.4837 10.1336 -72.2843
rradius 124.577
rwrist -58.0676
rhand -7.13968 9.70044
rfingers 7.12502
rthumb 18.7365 -19.4172
lclavicle 6.75868e-015 -4.77083e-015
lhumerus -16.23 1.41371 80.972
lradius 24.0391
lwrist 18.8369
lhand -19.5929 9.53838
lfingers 7.12502
lthumb 6.73279 39.4113
rfemur -14.0886 -0.334875 17.2979
rtibia 50.4266
rfoot -23.2434 -6.10689
rtoes -17.2809
lfemur -14.5123 0.831777 -13.6726
ltibia 47.5154
lfoot -17.7558 -10.4531
ltoes -6.54512
